<svg xmlns="http://www.w3.org/2000/svg" style="display: none;">
  <symbol id="icon-external-link" viewBox="0 0 14 14">
    <path d="M12.6667 12.6667H3.33333V3.33333H8V2H3.33333C2.59333 2 2 2.6 2 3.33333V12.6667C2 13.4 2.59333 14 3.33333 14H12.6667C13.4 14 14 13.4 14 12.6667V8H12.6667V12.6667ZM9.33333 2V3.33333H11.7267L5.17333 9.88667L6.11333 10.8267L12.6667 4.27333V6.66667H14V2H9.33333Z" fill="#3E464E"></path>
  </symbol>
</svg>
<svg xmlns="http://www.w3.org/2000/svg" viewBox="0 0 24 24" width="24" height="24">
  <path d="M7 17l10-10M7 7h10v10" stroke="currentColor" stroke-width="2" fill="none"/>
</svg>
<svg xmlns="http://www.w3.org/2000/svg" viewBox="0 0 24 24" id="download-icon" width="24" height="24">
  <path d="M5 20h14a1 1 0 0 1 1 1v1H4v-1a1 1 0 0 1 1-1zm7-18a1 1 0 0 1 1 1v10.59l3.3-3.3a1 1 0 1 1 1.4 1.42l-5 5a1 1 0 0 1-1.4 0l-5-5a1 1 0 1 1 1.4-1.42l3.3 3.3V3a1 1 0 0 1 1-1z" />
</svg>